<svg xmlns="http://www.w3.org/2000/svg" version="1.0" preserveAspectRatio="xMidYMid meet" viewBox="4.7 3 540.6 490">

<g transform="translate(0.000000,499.000000) scale(0.100000,-0.100000)" fill="#000000" stroke="none">
<path d="M2544 4946 c-40 -28 -312 -161 -464 -227 l-155 -67 -3 -1572 c-1 -933 -6 -1570 -11 -1568 -29 10 -285 347 -406 532 -91 140 -223 372 -308 541 -263 528 -440 1132 -473 1623 -4 56 -10 105 -14 107 -3 2 -73 -4 -154 -15 -82 -10 -229 -24 -329 -31 l-180 -13 7 -80 c4 -45 18 -155 32 -246 128 -826 410 -1560 871 -2263 117 -180 175 -258 352 -477 150 -186 510 -550 701 -710 203 -171 541 -420 570 -420 7 0 10 753 10 2450 0 1981 -2 2450 -13 2450 -7 0 -22 -6 -33 -14z"/>
<path d="M2910 2510 c0 -1712 3 -2450 11 -2450 35 0 613 438 651 494 4 6 8 724 8 1595 0 871 2 1582 4 1580 2 -2 11 -80 20 -174 26 -269 75 -530 140 -746 56 -183 160 -419 185 -419 13 0 136 149 224 271 150 208 323 520 462 832 26 59 50 106 52 103 9 -9 -83 -317 -154 -516 -127 -357 -321 -743 -528 -1055 l-75 -112 0 -519 1 -519 65 70 c121 130 327 379 425 515 367 506 662 1102 838 1693 100 336 185 753 207 1025 l7 82 -32 0 c-121 0 -530 42 -675 69 l-48 9 -121 -107 c-67 -58 -157 -137 -202 -175 -44 -39 -120 -105 -169 -148 -48 -43 -92 -78 -95 -78 -4 0 -23 35 -41 78 -19 42 -64 142 -100 222 -37 80 -98 213 -135 297 l-69 151 -179 72 c-198 79 -403 173 -557 255 -56 30 -106 55 -111 55 -5 0 -9 -976 -9 -2450z"/>
</g>
</svg>